# xmcd CD database file
#
# Track frame offsets:
#	150
#	10890
#	23357
#	35172
#	48250
#	59692
#	72047
#	88640
#	101590
#	114265
#	126605
#	137412
#	147402
#	160650
#	173057
#	183735
#	196150
#	205335
#	217465
#	233420
#
# Disc length: 3239 seconds
#
# Revision: 2
# Processed by: cddbd v1.5.2PL0 Copyright (c) Steve Scherf et al.
# Submitted via: CDex 1.51
#
DISCID=1e0ca514
DTITLE=Various Artist - Texas Blues Greats
DYEAR=2001
DGENRE=Blues
TTITLE0=Albert Collins - Collins Shuffle
TTITLE1=Goree Carter - My Best Bet
TTITLE2=Hubert Robinson - Boogie The Joint
TTITLE3=Lonnie Lyons - Sneaky Joe
TTITLE4=Joe Fritz - Im A Sleeper
TTITLE5=Henry Hayes - Hayes Boogie
TTITLE6=Sideways Sumlin - The Freeze
TTITLE7=Clarence Samuels - Low Top Inn
TTITLE8=Carl Campbell - Gettin High
TTITLE9=L.C. Williams - Jelly Roll
TTITLE10=Sammy Harris - Fatso
TTITLE11=D.C.Bender - Boogie Children
TTITLE12=Clarence Garlow - Im In A Boogie Mood
TTITLE13=Lightnin Hopkins - How Does It
TTITLE14=Connie McBrooker - Shout Baby Shout
TTITLE15=Sonny Boy Franklin Orchestra - Merry Go Round
TTITLE16=Fats Mizzel - Rockin Pneumonia And The Boogie Woogie Flu
TTITLE17=Clarence Candy Green - Greens Bounce
TTITLE18=Lightnin Hopkins - Pine Gum Boogie
TTITLE19=Conrad Johnson - Fly Chick Bounce
EXTD=YEAR: 2001
EXTT0=
EXTT1=
EXTT2=
EXTT3=
EXTT4=
EXTT5=
EXTT6=
EXTT7=
EXTT8=
EXTT9=
EXTT10=
EXTT11=
EXTT12=
EXTT13=
EXTT14=
EXTT15=
EXTT16=
EXTT17=
EXTT18=
EXTT19=
PLAYORDER=
